<svg width="112" height="112" viewBox="0 0 112 112" fill="none" xmlns="http://www.w3.org/2000/svg">
<circle cx="56" cy="56" r="56" fill="#31D892"/>
<circle cx="56" cy="56" r="56" fill="url(#paint0_radial)"/>
<path d="M95.5072 32.45C95.0241 31.7815 94.2529 31.3859 93.4332 31.3859H43.8077C42.3898 31.3859 41.2409 32.5456 41.2409 33.9768C41.2409 35.408 42.3898 36.5676 43.8077 36.5676H89.9156L88.0647 42.3972H49.4403C48.0224 42.3972 46.8735 43.5568 46.8735 44.988C46.8735 46.4193 48.0224 47.5789 49.4403 47.5789H86.4185L84.2937 54.272H52.435C51.0171 54.272 49.8682 55.4317 49.8682 56.8634C49.8682 58.2947 51.0171 59.4543 52.435 59.4543H82.6486L80.8663 65.0679H46.9177L32.9714 24.4916C32.725 23.7764 32.1825 23.2063 31.4854 22.9292L19.5066 18.1794C18.1864 17.6577 16.6967 18.3123 16.1782 19.6432C15.6606 20.9748 16.3089 22.4794 17.6283 23.0028L28.5079 27.3167L41.8246 66.0609C41.2368 66.2676 40.7387 66.7228 40.5119 67.3596L36.6616 78.1551C36.4256 78.8171 36.5229 79.5525 36.9244 80.1277C37.3255 80.703 37.9777 81.0454 38.6741 81.0454H40.6514C39.4261 82.4217 38.6741 84.2342 38.6741 86.2273C38.6741 90.5134 42.1291 94 46.3747 94C50.6203 94 54.0753 90.5134 54.0753 86.2273C54.0753 84.2342 53.3234 82.4217 52.0981 81.0454H68.8872C67.6613 82.4217 66.9092 84.2342 66.9092 86.2273C66.9092 90.5134 70.3635 94 74.61 94C78.8563 94 82.3106 90.5134 82.3106 86.2273C82.3106 84.2342 81.5586 82.4217 80.3335 81.0454H82.7385C83.9199 81.0454 84.8774 80.0788 84.8774 78.8863C84.8774 77.6938 83.9197 76.7273 82.7385 76.7273H41.7177L44.1023 70.0418C44.4102 70.1726 44.7428 70.2499 45.0911 70.2499H82.7379C83.854 70.2499 84.8418 69.5222 85.1818 68.4502L95.8771 34.7681C96.1279 33.9795 95.9902 33.1184 95.5072 32.45ZM46.3747 89.6817C44.4872 89.6817 42.9523 88.1325 42.9523 86.2273C42.9523 84.322 44.4872 82.7726 46.3747 82.7726C48.2623 82.7726 49.7971 84.322 49.7971 86.2273C49.7971 88.1325 48.2623 89.6817 46.3747 89.6817ZM74.6098 89.6817C72.7223 89.6817 71.1872 88.1325 71.1872 86.2273C71.1872 84.322 72.7223 82.7726 74.6098 82.7726C76.4972 82.7726 78.0322 84.322 78.0322 86.2273C78.0322 88.1325 76.4972 89.6817 74.6098 89.6817Z" fill="black"/>
<defs>
<radialGradient id="paint0_radial" cx="0" cy="0" r="1" gradientUnits="userSpaceOnUse" gradientTransform="translate(56 56) rotate(90) scale(56)">
<stop stop-color="white"/>
<stop offset="0.796875" stop-color="white" stop-opacity="0"/>
</radialGradient>
</defs>
</svg>
