<?xml version="1.0" encoding="UTF-8" standalone="no"?>
<!DOCTYPE svg PUBLIC "-//W3C//DTD SVG 1.1//EN" "http://www.w3.org/Graphics/SVG/1.1/DTD/svg11.dtd">
<svg version="1.1" xmlns="http://www.w3.org/2000/svg" xmlns:xlink="http://www.w3.org/1999/xlink" preserveAspectRatio="xMidYMid meet" viewBox="0 0 640 640" width="640" height="640"><defs><path d="M362.53 130.92C362.53 162.32 297.63 187.82 217.7 187.82C137.77 187.82 72.87 162.32 72.87 130.92C72.87 99.52 137.77 74.02 217.7 74.02C297.63 74.02 362.53 99.52 362.53 130.92Z" id="dHC7MggAO"></path><path d="M38.39 39.54L415.4 39.54L415.4 115.4L38.39 115.4L38.39 39.54Z" id="aZhciZEpB"></path><path d="M390.69 115.4C390.69 130.63 378.07 142.99 362.53 142.99C346.99 142.99 334.37 130.63 334.37 115.4C334.37 100.18 346.99 87.82 362.53 87.82C378.07 87.82 390.69 100.18 390.69 115.4Z" id="b4cunOgkqx"></path><path d="M101.03 115.4C101.03 130.63 88.42 142.99 72.87 142.99C57.33 142.99 44.71 130.63 44.71 115.4C44.71 100.18 57.33 87.82 72.87 87.82C88.42 87.82 101.03 100.18 101.03 115.4Z" id="a6pwmtGmXZ"></path></defs><g><g><g><g><use xlink:href="#dHC7MggAO" opacity="1" fill-opacity="0" stroke="#171717" stroke-width="20" stroke-opacity="1"></use></g></g><g><use xlink:href="#aZhciZEpB" opacity="1" fill="#ffffff" fill-opacity="1"></use></g><g><use xlink:href="#b4cunOgkqx" opacity="1" fill="#171717" fill-opacity="1"></use></g><g><use xlink:href="#a6pwmtGmXZ" opacity="1" fill="#171717" fill-opacity="1"></use></g></g></g></svg>