<svg width="100" height="450" viewBox="0 0 100 450" fill="none" xmlns="http://www.w3.org/2000/svg">
<circle cx="19.5" cy="325.5" r="14.5" fill="#0A0A0A"/>
<circle cx="76.5" cy="325.5" r="14.5" fill="#0A0A0A"/>
<path d="M19 324.5C27 359 69 360 76 324.5" stroke="black" stroke-width="9"/>
<path d="M30.0732 326.113C27.5834 324.235 13 342.5 45.5 351" stroke="#DEDEDE"/>
<circle cx="19.5" cy="282.5" r="14.5" fill="#0A0A0A"/>
<circle cx="76.5" cy="282.5" r="14.5" fill="#0A0A0A"/>
<path d="M19 281.5C27 316 69 317 76 281.5" stroke="black" stroke-width="9"/>
<path d="M30.0732 283.113C27.5834 281.235 13 299.5 45.5 308" stroke="#DEDEDE"/>
<circle cx="19.5" cy="239.5" r="14.5" fill="#0A0A0A"/>
<circle cx="76.5" cy="239.5" r="14.5" fill="#0A0A0A"/>
<path d="M19 238.5C27 273 69 274 76 238.5" stroke="black" stroke-width="9"/>
<path d="M30.0732 240.113C27.5834 238.235 13 256.5 45.5 265" stroke="#DEDEDE"/>
<circle cx="19.5" cy="196.5" r="14.5" fill="#0A0A0A"/>
<circle cx="76.5" cy="196.5" r="14.5" fill="#0A0A0A"/>
<path d="M19 195.5C27 230 69 231 76 195.5" stroke="black" stroke-width="9"/>
<path d="M30.0732 197.113C27.5834 195.235 13 213.5 45.5 222" stroke="#DEDEDE"/>
<circle cx="19.5" cy="67.5" r="14.5" fill="#0A0A0A"/>
<circle cx="76.5" cy="67.5" r="14.5" fill="#0A0A0A"/>
<path d="M19 66.5C27 101 69 102 76 66.5" stroke="black" stroke-width="9"/>
<path d="M30.0732 68.1131C27.5834 66.2348 13 84.5 45.5 93" stroke="#DEDEDE"/>
<circle cx="19.5" cy="368.5" r="14.5" fill="#0A0A0A"/>
<circle cx="76.5" cy="368.5" r="14.5" fill="#0A0A0A"/>
<path d="M19 367.5C27 402 69 403 76 367.5" stroke="black" stroke-width="9"/>
<path d="M30.0732 369.113C27.5834 367.235 13 385.5 45.5 394" stroke="#DEDEDE"/>
<circle cx="19.5" cy="411.5" r="14.5" fill="#0A0A0A"/>
<circle cx="76.5" cy="411.5" r="14.5" fill="#0A0A0A"/>
<path d="M19 410.5C27 445 69 446 76 410.5" stroke="black" stroke-width="9"/>
<path d="M30.0732 412.113C27.5834 410.235 13 428.5 45.5 437" stroke="#DEDEDE"/>
<circle cx="19.5" cy="24.5" r="14.5" fill="#0A0A0A"/>
<circle cx="76.5" cy="24.5" r="14.5" fill="#0A0A0A"/>
<path d="M19 23.5C27 58 69 59 76 23.5" stroke="black" stroke-width="9"/>
<path d="M30.0732 25.1131C27.5834 23.2348 13 41.5 45.5 50" stroke="#DEDEDE"/>
<circle cx="19.5" cy="110.5" r="14.5" fill="#0A0A0A"/>
<circle cx="76.5" cy="110.5" r="14.5" fill="#0A0A0A"/>
<path d="M19 109.5C27 144 69 145 76 109.5" stroke="black" stroke-width="9"/>
<path d="M30.0732 111.113C27.5834 109.235 13 127.5 45.5 136" stroke="#DEDEDE"/>
<circle cx="19.5" cy="153.5" r="14.5" fill="#0A0A0A"/>
<circle cx="76.5" cy="153.5" r="14.5" fill="#0A0A0A"/>
<path d="M19 152.5C27 187 69 188 76 152.5" stroke="black" stroke-width="9"/>
<path d="M30.0732 154.113C27.5834 152.235 13 170.5 45.5 179" stroke="#DEDEDE"/>
</svg>
